<?xml version="1.0" encoding="UTF-8"?>
<svg id="Layer_1" data-name="Layer 1" xmlns="http://www.w3.org/2000/svg" viewBox="0 0 568.61 800">
  <defs>
    <style>
      .cls-1 {
        fill: #fff;
      }
    </style>
  </defs>
  <path class="cls-1" d="M289.24,548.85c0-87.14,70.89-158.03,158.03-158.03,17.58,0,34.48,2.93,50.29,8.25l13.15-157.81H11.34l39.11,469.25c4.18,50.17,46.9,89.48,97.25,89.48h226.66c50.35,0,93.07-39.31,97.25-89.48l.47-5.61c-8.08,1.28-16.36,1.96-24.8,1.96-87.14,0-158.03-70.89-158.03-158.03Z"/>
  <path class="cls-1" d="M447.27,427.51c-66.91,0-121.34,54.44-121.34,121.34s54.44,121.34,121.34,121.34,121.34-54.44,121.34-121.34-54.44-121.34-121.34-121.34Zm59.53,154.93c7.16,7.16,7.16,18.78,0,25.94-3.58,3.58-8.28,5.37-12.97,5.37s-9.39-1.79-12.97-5.37l-33.59-33.59-33.59,33.59c-3.58,3.58-8.28,5.37-12.97,5.37s-9.39-1.79-12.97-5.37c-7.16-7.16-7.16-18.78,0-25.94l33.59-33.59-33.59-33.59c-7.16-7.16-7.16-18.78,0-25.94,7.16-7.16,18.78-7.16,25.94,0l33.59,33.59,33.59-33.59c7.17-7.16,18.78-7.16,25.94,0,7.16,7.16,7.16,18.78,0,25.94l-33.59,33.59,33.59,33.59Z"/>
  <path class="cls-1" d="M186.24,70.31c0-18.54,15.08-33.62,33.62-33.62h82.31c18.54,0,33.63,15.08,33.63,33.62v22.91h36.68v-22.91c0-38.77-31.54-70.31-70.31-70.31h-82.31c-38.77,0-70.31,31.54-70.31,70.31v22.91h36.68v-22.91Z"/>
  <path class="cls-1" d="M522.05,171.43c0-22.9-18.63-41.52-41.52-41.52H41.52c-22.9,0-41.52,18.63-41.52,41.52v33.16H522.05v-33.16Z"/>
</svg>