<?xml version="1.0" encoding="UTF-8"?>
<svg id="Layer_1" data-name="Layer 1" xmlns="http://www.w3.org/2000/svg" viewBox="0 0 22 22">
  <defs>
    <style>
      .cls-1 {
        fill: #fff;
      }
    </style>
  </defs>
  <path class="cls-1" d="M20.63,5.37c-.47-.77-1.04-1.53-1.75-2.23-.71-.71-1.48-1.29-2.27-1.75l1.38-1.38s2,0,3,1,1,3,1,3l-1.37,1.37Zm-11.63,11.63H5v-4l.48-.48c.81,.39,1.62,.93,2.35,1.65,.73,.73,1.27,1.54,1.65,2.35l-.48,.48ZM19.48,6.52L10.63,15.37c-.47-.77-1.04-1.53-1.75-2.23-.71-.71-1.48-1.29-2.27-1.75L15.48,2.52c.81,.38,1.62,.92,2.35,1.65,.73,.73,1.27,1.54,1.65,2.35ZM3,3V19H19v-7l3-3.04v11.04c0,1.11-.9,2-2,2H2c-1.1,0-2-.89-2-2V2C0,.9,.9,0,2,0H13.01l-3,3H3Z"/>
</svg>